<svg xmlns="http://www.w3.org/2000/svg" xmlns:xlink="http://www.w3.org/1999/xlink" width="1600" zoomAndPan="magnify" viewBox="0 0 1200 675.000002" height="900" preserveAspectRatio="xMidYMid meet" version="1.0"><defs><filter x="0%" y="0%" width="100%" height="100%" id="68c75303e8"><feColorMatrix values="0 0 0 0 1 0 0 0 0 1 0 0 0 0 1 0 0 0 1 0" color-interpolation-filters="sRGB"/></filter><g/><clipPath id="9af77c2068"><path d="M 0.886719 0 L 1199.113281 0 L 1199.113281 674 L 0.886719 674 Z M 0.886719 0 " clip-rule="nonzero"/></clipPath><radialGradient gradientTransform="matrix(1, 0, 0, 1, 0.887572, 0.0000199704)" gradientUnits="userSpaceOnUse" r="1374.780293" cx="0" id="b2bb5a942d" cy="0" fx="0" fy="0"><stop stop-opacity="1" stop-color="rgb(100%, 98.683167%, 86.894226%)" offset="0"/><stop stop-opacity="1" stop-color="rgb(100%, 98.466492%, 87.260437%)" offset="0.03125"/><stop stop-opacity="1" stop-color="rgb(100%, 98.26355%, 87.602234%)" offset="0.0585938"/><stop stop-opacity="1" stop-color="rgb(100%, 98.062134%, 87.944031%)" offset="0.0859375"/><stop stop-opacity="1" stop-color="rgb(100%, 97.859192%, 88.285828%)" offset="0.113281"/><stop stop-opacity="1" stop-color="rgb(100%, 97.671509%, 88.60321%)" offset="0.140625"/><stop stop-opacity="1" stop-color="rgb(100%, 97.497559%, 88.896179%)" offset="0.164062"/><stop stop-opacity="1" stop-color="rgb(100%, 97.325134%, 89.189148%)" offset="0.1875"/><stop stop-opacity="1" stop-color="rgb(100%, 97.151184%, 89.482117%)" offset="0.210938"/><stop stop-opacity="1" stop-color="rgb(100%, 96.977234%, 89.775085%)" offset="0.234375"/><stop stop-opacity="1" stop-color="rgb(100%, 96.818542%, 90.04364%)" offset="0.257812"/><stop stop-opacity="1" stop-color="rgb(100%, 96.673584%, 90.287781%)" offset="0.277344"/><stop stop-opacity="1" stop-color="rgb(100%, 96.530151%, 90.531921%)" offset="0.296875"/><stop stop-opacity="1" stop-color="rgb(100%, 96.385193%, 90.776062%)" offset="0.316406"/><stop stop-opacity="1" stop-color="rgb(100%, 96.240234%, 91.020203%)" offset="0.335938"/><stop stop-opacity="1" stop-color="rgb(100%, 96.095276%, 91.264343%)" offset="0.355469"/><stop stop-opacity="1" stop-color="rgb(100%, 95.951843%, 91.508484%)" offset="0.375"/><stop stop-opacity="1" stop-color="rgb(100%, 95.822144%, 91.72821%)" offset="0.394531"/><stop stop-opacity="1" stop-color="rgb(100%, 95.706177%, 91.923523%)" offset="0.410156"/><stop stop-opacity="1" stop-color="rgb(100%, 95.59021%, 92.118835%)" offset="0.425781"/><stop stop-opacity="1" stop-color="rgb(100%, 95.41626%, 92.411804%)" offset="0.441406"/><stop stop-opacity="1" stop-color="rgb(100%, 95.185852%, 92.802429%)" offset="0.472656"/><stop stop-opacity="1" stop-color="rgb(100%, 94.969177%, 93.16864%)" offset="0.503906"/><stop stop-opacity="1" stop-color="rgb(100%, 94.766235%, 93.510437%)" offset="0.53125"/><stop stop-opacity="1" stop-color="rgb(100%, 94.563293%, 93.852234%)" offset="0.558594"/><stop stop-opacity="1" stop-color="rgb(100%, 94.37561%, 94.169617%)" offset="0.585938"/><stop stop-opacity="1" stop-color="rgb(100%, 94.203186%, 94.462585%)" offset="0.609375"/><stop stop-opacity="1" stop-color="rgb(100%, 94.042969%, 94.73114%)" offset="0.632812"/><stop stop-opacity="1" stop-color="rgb(100%, 93.899536%, 94.975281%)" offset="0.652344"/><stop stop-opacity="1" stop-color="rgb(100%, 93.754578%, 95.219421%)" offset="0.671875"/><stop stop-opacity="1" stop-color="rgb(100%, 93.624878%, 95.439148%)" offset="0.691406"/><stop stop-opacity="1" stop-color="rgb(100%, 93.508911%, 95.63446%)" offset="0.707031"/><stop stop-opacity="1" stop-color="rgb(100%, 93.334961%, 95.927429%)" offset="0.722656"/><stop stop-opacity="1" stop-color="rgb(100%, 93.118286%, 96.29364%)" offset="0.753906"/><stop stop-opacity="1" stop-color="rgb(100%, 92.91687%, 96.635437%)" offset="0.78125"/><stop stop-opacity="1" stop-color="rgb(100%, 92.729187%, 96.95282%)" offset="0.808594"/><stop stop-opacity="1" stop-color="rgb(100%, 92.56897%, 97.221375%)" offset="0.832031"/><stop stop-opacity="1" stop-color="rgb(100%, 92.43927%, 97.441101%)" offset="0.851562"/><stop stop-opacity="1" stop-color="rgb(100%, 92.266846%, 97.73407%)" offset="0.867188"/><stop stop-opacity="1" stop-color="rgb(100%, 92.063904%, 98.075867%)" offset="0.898438"/><stop stop-opacity="1" stop-color="rgb(100%, 91.905212%, 98.344421%)" offset="0.921875"/><stop stop-opacity="1" stop-color="rgb(100%, 91.731262%, 98.63739%)" offset="0.941406"/><stop stop-opacity="1" stop-color="rgb(100%, 91.514587%, 99.003601%)" offset="0.96875"/><stop stop-opacity="1" stop-color="rgb(100%, 91.398621%, 99.198914%)" offset="1"/></radialGradient><clipPath id="b6728ed0b2"><path d="M 512 61 L 1199.113281 61 L 1199.113281 674 L 512 674 Z M 512 61 " clip-rule="nonzero"/></clipPath><mask id="f355bd89b1"><g filter="url(#68c75303e8)"><rect x="-120" width="1440" fill="#000000" y="-67.5" height="810.000002" fill-opacity="0.56"/></g></mask><clipPath id="b2972d1c4d"><path d="M 4 61 L 687.113281 61 L 687.113281 613 L 4 613 Z M 4 61 " clip-rule="nonzero"/></clipPath><clipPath id="98d032f1f3"><path d="M 66.089844 0.222656 L 874.734375 79.738281 L 795.21875 888.382812 L -13.429688 808.867188 Z M 66.089844 0.222656 " clip-rule="nonzero"/></clipPath><clipPath id="34caad7422"><path d="M 66.089844 0.222656 L 741.328125 66.621094 L 676.101562 729.933594 L 0.863281 663.535156 Z M 66.089844 0.222656 " clip-rule="nonzero"/></clipPath><clipPath id="bf4198883d"><path d="M 66.089844 0.222656 L 874.734375 79.738281 L 795.21875 888.382812 L -13.429688 808.867188 Z M 66.089844 0.222656 " clip-rule="nonzero"/></clipPath><clipPath id="f52b95a0e2"><path d="M 35.371094 663.496094 C 45.996094 655.089844 57.378906 647.882812 69.515625 641.871094 C 81.652344 635.859375 94.285156 631.171875 107.40625 627.8125 L 186.394531 724.027344 C 180.542969 736.246094 173.488281 747.722656 165.222656 758.457031 C 156.960938 769.191406 147.675781 778.949219 137.363281 787.730469 L 168.179688 825.265625 C 230.609375 773.574219 255.304688 690.46875 277.0625 607.558594 C 362.625 602.363281 448.949219 594.328125 511.8125 543.164062 C 519.664062 535.816406 527.199219 528.160156 534.421875 520.195312 C 541.644531 512.230469 548.527344 503.980469 555.070312 495.449219 C 561.613281 486.917969 567.796875 478.128906 573.617188 469.089844 C 579.4375 460.050781 584.878906 450.785156 589.9375 441.296875 C 594.996094 431.808594 599.65625 422.128906 603.921875 412.257812 C 608.183594 402.386719 612.035156 392.359375 615.472656 382.171875 C 618.910156 371.984375 621.925781 361.671875 624.515625 351.234375 C 627.105469 340.800781 629.261719 330.277344 630.988281 319.664062 C 711.929688 316.929688 794.988281 312.460938 857.855469 261.296875 L 827.039062 223.761719 C 816.296875 232.121094 804.777344 239.222656 792.480469 245.0625 C 780.1875 250.902344 767.40625 255.34375 754.136719 258.386719 L 674.476562 164.046875 C 677.15625 157.800781 680.1875 151.734375 683.578125 145.84375 C 686.96875 139.953125 690.6875 134.285156 694.746094 128.832031 C 698.800781 123.378906 703.160156 118.179688 707.824219 113.242188 C 712.492188 108.300781 717.429688 103.648438 722.640625 99.289062 L 691.828125 61.753906 C 629.445312 112.964844 608.882812 193.5625 589.90625 272.855469 C 579.175781 272.445312 568.449219 272.480469 557.71875 272.964844 C 546.992188 273.445312 536.304688 274.375 525.652344 275.746094 C 515.003906 277.117188 504.429688 278.929688 493.929688 281.183594 C 483.429688 283.4375 473.042969 286.121094 462.765625 289.238281 C 452.492188 292.355469 442.363281 295.894531 432.382812 299.855469 C 422.398438 303.816406 412.601562 308.1875 402.984375 312.960938 C 393.367188 317.738281 383.964844 322.90625 374.777344 328.46875 C 365.589844 334.027344 356.648438 339.957031 347.957031 346.261719 C 285.808594 395.070312 262.027344 478.75 239.304688 561.566406 C 156.152344 566.996094 66.941406 574.746094 4.558594 625.960938 Z M 160.953125 617.039062 C 182.125 614.261719 203.726562 612.011719 226.199219 610.820312 C 220.21875 632.101562 214.238281 653.382812 207.4375 673.125 Z M 290.3125 556.859375 C 298.761719 522.902344 309.792969 489.808594 323.402344 457.570312 L 394.191406 543.261719 C 359.914062 550.445312 325.285156 554.976562 290.3125 556.859375 Z M 539.972656 429.78125 L 462.480469 338.085938 C 500.472656 328.28125 539.074219 322.84375 578.292969 321.769531 C 569.472656 359.664062 556.652344 396.148438 539.828125 431.226562 Z M 696.542969 265.847656 L 640.289062 269.546875 C 645.070312 250.578125 649.757812 232.574219 654.878906 215.09375 Z M 415.832031 357.796875 L 511.84375 473.671875 C 502.570312 485.296875 492.289062 495.949219 481 505.628906 C 469.332031 514.640625 456.765625 522.152344 443.304688 528.164062 L 349.078125 413.925781 C 357.550781 401.699219 367.527344 390.855469 379.007812 381.390625 C 390.421875 372.183594 402.695312 364.320312 415.832031 357.796875 Z M 415.832031 357.796875 " clip-rule="nonzero"/></clipPath><linearGradient x1="-1.141588" gradientTransform="matrix(48.133704, 4.733129, -4.733128, 48.133697, 66.088551, 0.221577)" y1="8.38" x2="14.018365" gradientUnits="userSpaceOnUse" y2="8.38" id="92721047f8"><stop stop-opacity="1" stop-color="rgb(7.099915%, 76.098633%, 91.398621%)" offset="0"/><stop stop-opacity="1" stop-color="rgb(7.099915%, 76.098633%, 91.398621%)" offset="0.0625"/><stop stop-opacity="1" stop-color="rgb(7.246399%, 76.031494%, 91.401672%)" offset="0.078125"/><stop stop-opacity="1" stop-color="rgb(7.798767%, 75.776672%, 91.412354%)" offset="0.0820312"/><stop stop-opacity="1" stop-color="rgb(8.206177%, 75.590515%, 91.421509%)" offset="0.0859375"/><stop stop-opacity="1" stop-color="rgb(8.612061%, 75.404358%, 91.429138%)" offset="0.0898438"/><stop stop-opacity="1" stop-color="rgb(9.017944%, 75.218201%, 91.436768%)" offset="0.09375"/><stop stop-opacity="1" stop-color="rgb(9.423828%, 75.030518%, 91.444397%)" offset="0.0976562"/><stop stop-opacity="1" stop-color="rgb(9.831238%, 74.84436%, 91.452026%)" offset="0.101562"/><stop stop-opacity="1" stop-color="rgb(10.237122%, 74.656677%, 91.459656%)" offset="0.105469"/><stop stop-opacity="1" stop-color="rgb(10.644531%, 74.47052%, 91.468811%)" offset="0.109375"/><stop stop-opacity="1" stop-color="rgb(11.050415%, 74.284363%, 91.47644%)" offset="0.113281"/><stop stop-opacity="1" stop-color="rgb(11.457825%, 74.098206%, 91.48407%)" offset="0.117187"/><stop stop-opacity="1" stop-color="rgb(11.863708%, 73.910522%, 91.491699%)" offset="0.121094"/><stop stop-opacity="1" stop-color="rgb(12.269592%, 73.724365%, 91.499329%)" offset="0.125"/><stop stop-opacity="1" stop-color="rgb(12.675476%, 73.536682%, 91.506958%)" offset="0.128906"/><stop stop-opacity="1" stop-color="rgb(13.082886%, 73.350525%, 91.516113%)" offset="0.132812"/><stop stop-opacity="1" stop-color="rgb(13.48877%, 73.164368%, 91.523743%)" offset="0.136719"/><stop stop-opacity="1" stop-color="rgb(13.896179%, 72.97821%, 91.531372%)" offset="0.140625"/><stop stop-opacity="1" stop-color="rgb(14.302063%, 72.790527%, 91.539001%)" offset="0.144531"/><stop stop-opacity="1" stop-color="rgb(14.709473%, 72.60437%, 91.548157%)" offset="0.148438"/><stop stop-opacity="1" stop-color="rgb(15.115356%, 72.418213%, 91.555786%)" offset="0.152344"/><stop stop-opacity="1" stop-color="rgb(15.52124%, 72.232056%, 91.563416%)" offset="0.15625"/><stop stop-opacity="1" stop-color="rgb(15.927124%, 72.044373%, 91.571045%)" offset="0.160156"/><stop stop-opacity="1" stop-color="rgb(16.334534%, 71.858215%, 91.578674%)" offset="0.164063"/><stop stop-opacity="1" stop-color="rgb(16.740417%, 71.670532%, 91.586304%)" offset="0.167969"/><stop stop-opacity="1" stop-color="rgb(17.147827%, 71.484375%, 91.595459%)" offset="0.171875"/><stop stop-opacity="1" stop-color="rgb(17.553711%, 71.298218%, 91.603088%)" offset="0.175781"/><stop stop-opacity="1" stop-color="rgb(17.961121%, 71.112061%, 91.610718%)" offset="0.179688"/><stop stop-opacity="1" stop-color="rgb(18.367004%, 70.924377%, 91.618347%)" offset="0.183594"/><stop stop-opacity="1" stop-color="rgb(18.772888%, 70.73822%, 91.627502%)" offset="0.1875"/><stop stop-opacity="1" stop-color="rgb(19.178772%, 70.550537%, 91.635132%)" offset="0.191406"/><stop stop-opacity="1" stop-color="rgb(19.586182%, 70.36438%, 91.642761%)" offset="0.195312"/><stop stop-opacity="1" stop-color="rgb(19.992065%, 70.178223%, 91.650391%)" offset="0.199219"/><stop stop-opacity="1" stop-color="rgb(20.399475%, 69.992065%, 91.65802%)" offset="0.203125"/><stop stop-opacity="1" stop-color="rgb(20.805359%, 69.804382%, 91.665649%)" offset="0.207031"/><stop stop-opacity="1" stop-color="rgb(21.212769%, 69.618225%, 91.674805%)" offset="0.210938"/><stop stop-opacity="1" stop-color="rgb(21.618652%, 69.430542%, 91.682434%)" offset="0.214844"/><stop stop-opacity="1" stop-color="rgb(22.024536%, 69.244385%, 91.690063%)" offset="0.21875"/><stop stop-opacity="1" stop-color="rgb(22.43042%, 69.058228%, 91.697693%)" offset="0.222656"/><stop stop-opacity="1" stop-color="rgb(22.83783%, 68.87207%, 91.706848%)" offset="0.226562"/><stop stop-opacity="1" stop-color="rgb(23.243713%, 68.684387%, 91.714478%)" offset="0.230469"/><stop stop-opacity="1" stop-color="rgb(23.651123%, 68.49823%, 91.722107%)" offset="0.234375"/><stop stop-opacity="1" stop-color="rgb(24.057007%, 68.310547%, 91.729736%)" offset="0.238281"/><stop stop-opacity="1" stop-color="rgb(24.464417%, 68.12439%, 91.737366%)" offset="0.242188"/><stop stop-opacity="1" stop-color="rgb(24.8703%, 67.938232%, 91.744995%)" offset="0.246094"/><stop stop-opacity="1" stop-color="rgb(25.276184%, 67.752075%, 91.75415%)" offset="0.25"/><stop stop-opacity="1" stop-color="rgb(25.682068%, 67.564392%, 91.76178%)" offset="0.253906"/><stop stop-opacity="1" stop-color="rgb(26.089478%, 67.378235%, 91.769409%)" offset="0.257812"/><stop stop-opacity="1" stop-color="rgb(26.495361%, 67.192078%, 91.777039%)" offset="0.261719"/><stop stop-opacity="1" stop-color="rgb(26.902771%, 67.00592%, 91.786194%)" offset="0.265625"/><stop stop-opacity="1" stop-color="rgb(27.308655%, 66.818237%, 91.793823%)" offset="0.269531"/><stop stop-opacity="1" stop-color="rgb(27.716064%, 66.63208%, 91.801453%)" offset="0.273437"/><stop stop-opacity="1" stop-color="rgb(28.121948%, 66.444397%, 91.809082%)" offset="0.277344"/><stop stop-opacity="1" stop-color="rgb(28.527832%, 66.25824%, 91.816711%)" offset="0.28125"/><stop stop-opacity="1" stop-color="rgb(28.933716%, 66.072083%, 91.824341%)" offset="0.285156"/><stop stop-opacity="1" stop-color="rgb(29.341125%, 65.885925%, 91.833496%)" offset="0.289062"/><stop stop-opacity="1" stop-color="rgb(29.747009%, 65.698242%, 91.841125%)" offset="0.292969"/><stop stop-opacity="1" stop-color="rgb(30.154419%, 65.512085%, 91.848755%)" offset="0.296875"/><stop stop-opacity="1" stop-color="rgb(30.560303%, 65.324402%, 91.856384%)" offset="0.300781"/><stop stop-opacity="1" stop-color="rgb(30.967712%, 65.138245%, 91.864014%)" offset="0.304688"/><stop stop-opacity="1" stop-color="rgb(31.373596%, 64.952087%, 91.871643%)" offset="0.308594"/><stop stop-opacity="1" stop-color="rgb(31.77948%, 64.76593%, 91.880798%)" offset="0.3125"/><stop stop-opacity="1" stop-color="rgb(32.185364%, 64.578247%, 91.888428%)" offset="0.316406"/><stop stop-opacity="1" stop-color="rgb(32.592773%, 64.39209%, 91.896057%)" offset="0.320312"/><stop stop-opacity="1" stop-color="rgb(32.998657%, 64.204407%, 91.903687%)" offset="0.324219"/><stop stop-opacity="1" stop-color="rgb(33.406067%, 64.01825%, 91.912842%)" offset="0.328125"/><stop stop-opacity="1" stop-color="rgb(33.811951%, 63.832092%, 91.920471%)" offset="0.332031"/><stop stop-opacity="1" stop-color="rgb(34.21936%, 63.645935%, 91.928101%)" offset="0.335938"/><stop stop-opacity="1" stop-color="rgb(34.625244%, 63.458252%, 91.93573%)" offset="0.339844"/><stop stop-opacity="1" stop-color="rgb(35.031128%, 63.272095%, 91.943359%)" offset="0.34375"/><stop stop-opacity="1" stop-color="rgb(35.437012%, 63.084412%, 91.950989%)" offset="0.347656"/><stop stop-opacity="1" stop-color="rgb(35.844421%, 62.898254%, 91.960144%)" offset="0.351562"/><stop stop-opacity="1" stop-color="rgb(36.250305%, 62.712097%, 91.967773%)" offset="0.355469"/><stop stop-opacity="1" stop-color="rgb(36.657715%, 62.52594%, 91.975403%)" offset="0.359375"/><stop stop-opacity="1" stop-color="rgb(37.063599%, 62.338257%, 91.983032%)" offset="0.363281"/><stop stop-opacity="1" stop-color="rgb(37.469482%, 62.1521%, 91.992188%)" offset="0.367187"/><stop stop-opacity="1" stop-color="rgb(37.875366%, 61.964417%, 91.999817%)" offset="0.371094"/><stop stop-opacity="1" stop-color="rgb(38.282776%, 61.778259%, 92.007446%)" offset="0.375"/><stop stop-opacity="1" stop-color="rgb(38.68866%, 61.592102%, 92.015076%)" offset="0.378906"/><stop stop-opacity="1" stop-color="rgb(39.096069%, 61.405945%, 92.022705%)" offset="0.382812"/><stop stop-opacity="1" stop-color="rgb(39.501953%, 61.218262%, 92.030334%)" offset="0.386719"/><stop stop-opacity="1" stop-color="rgb(39.909363%, 61.032104%, 92.03949%)" offset="0.390625"/><stop stop-opacity="1" stop-color="rgb(40.315247%, 60.845947%, 92.047119%)" offset="0.394531"/><stop stop-opacity="1" stop-color="rgb(40.72113%, 60.65979%, 92.054749%)" offset="0.398438"/><stop stop-opacity="1" stop-color="rgb(41.127014%, 60.472107%, 92.062378%)" offset="0.402344"/><stop stop-opacity="1" stop-color="rgb(41.534424%, 60.28595%, 92.071533%)" offset="0.40625"/><stop stop-opacity="1" stop-color="rgb(41.940308%, 60.098267%, 92.079163%)" offset="0.410156"/><stop stop-opacity="1" stop-color="rgb(42.347717%, 59.912109%, 92.086792%)" offset="0.414062"/><stop stop-opacity="1" stop-color="rgb(42.753601%, 59.725952%, 92.094421%)" offset="0.417969"/><stop stop-opacity="1" stop-color="rgb(43.161011%, 59.539795%, 92.102051%)" offset="0.421875"/><stop stop-opacity="1" stop-color="rgb(43.566895%, 59.352112%, 92.10968%)" offset="0.425781"/><stop stop-opacity="1" stop-color="rgb(43.972778%, 59.165955%, 92.118835%)" offset="0.429688"/><stop stop-opacity="1" stop-color="rgb(44.378662%, 58.978271%, 92.126465%)" offset="0.433594"/><stop stop-opacity="1" stop-color="rgb(44.786072%, 58.792114%, 92.134094%)" offset="0.4375"/><stop stop-opacity="1" stop-color="rgb(45.191956%, 58.605957%, 92.141724%)" offset="0.441406"/><stop stop-opacity="1" stop-color="rgb(45.599365%, 58.4198%, 92.150879%)" offset="0.445312"/><stop stop-opacity="1" stop-color="rgb(46.005249%, 58.232117%, 92.158508%)" offset="0.449219"/><stop stop-opacity="1" stop-color="rgb(46.412659%, 58.045959%, 92.166138%)" offset="0.453125"/><stop stop-opacity="1" stop-color="rgb(46.818542%, 57.858276%, 92.173767%)" offset="0.457031"/><stop stop-opacity="1" stop-color="rgb(47.224426%, 57.672119%, 92.181396%)" offset="0.460937"/><stop stop-opacity="1" stop-color="rgb(47.63031%, 57.485962%, 92.189026%)" offset="0.464844"/><stop stop-opacity="1" stop-color="rgb(48.03772%, 57.299805%, 92.198181%)" offset="0.46875"/><stop stop-opacity="1" stop-color="rgb(48.443604%, 57.112122%, 92.205811%)" offset="0.472656"/><stop stop-opacity="1" stop-color="rgb(48.851013%, 56.925964%, 92.21344%)" offset="0.476562"/><stop stop-opacity="1" stop-color="rgb(49.256897%, 56.738281%, 92.221069%)" offset="0.480469"/><stop stop-opacity="1" stop-color="rgb(49.664307%, 56.552124%, 92.228699%)" offset="0.484375"/><stop stop-opacity="1" stop-color="rgb(50.07019%, 56.365967%, 92.236328%)" offset="0.488281"/><stop stop-opacity="1" stop-color="rgb(50.476074%, 56.17981%, 92.245483%)" offset="0.492188"/><stop stop-opacity="1" stop-color="rgb(50.881958%, 55.992126%, 92.253113%)" offset="0.496094"/><stop stop-opacity="1" stop-color="rgb(51.289368%, 55.805969%, 92.260742%)" offset="0.5"/><stop stop-opacity="1" stop-color="rgb(51.695251%, 55.618286%, 92.268372%)" offset="0.503906"/><stop stop-opacity="1" stop-color="rgb(52.102661%, 55.432129%, 92.277527%)" offset="0.507812"/><stop stop-opacity="1" stop-color="rgb(52.508545%, 55.245972%, 92.285156%)" offset="0.511719"/><stop stop-opacity="1" stop-color="rgb(52.915955%, 55.059814%, 92.292786%)" offset="0.515625"/><stop stop-opacity="1" stop-color="rgb(53.321838%, 54.872131%, 92.300415%)" offset="0.519531"/><stop stop-opacity="1" stop-color="rgb(53.727722%, 54.685974%, 92.308044%)" offset="0.523438"/><stop stop-opacity="1" stop-color="rgb(54.133606%, 54.499817%, 92.315674%)" offset="0.527344"/><stop stop-opacity="1" stop-color="rgb(54.541016%, 54.31366%, 92.324829%)" offset="0.53125"/><stop stop-opacity="1" stop-color="rgb(54.946899%, 54.125977%, 92.332458%)" offset="0.535156"/><stop stop-opacity="1" stop-color="rgb(55.354309%, 53.939819%, 92.340088%)" offset="0.539062"/><stop stop-opacity="1" stop-color="rgb(55.760193%, 53.752136%, 92.347717%)" offset="0.542969"/><stop stop-opacity="1" stop-color="rgb(56.167603%, 53.565979%, 92.356873%)" offset="0.546875"/><stop stop-opacity="1" stop-color="rgb(56.573486%, 53.379822%, 92.364502%)" offset="0.550781"/><stop stop-opacity="1" stop-color="rgb(56.97937%, 53.193665%, 92.372131%)" offset="0.554687"/><stop stop-opacity="1" stop-color="rgb(57.385254%, 53.005981%, 92.379761%)" offset="0.558594"/><stop stop-opacity="1" stop-color="rgb(57.792664%, 52.819824%, 92.38739%)" offset="0.5625"/><stop stop-opacity="1" stop-color="rgb(58.198547%, 52.632141%, 92.39502%)" offset="0.566406"/><stop stop-opacity="1" stop-color="rgb(58.605957%, 52.445984%, 92.404175%)" offset="0.570312"/><stop stop-opacity="1" stop-color="rgb(59.011841%, 52.259827%, 92.411804%)" offset="0.574219"/><stop stop-opacity="1" stop-color="rgb(59.41925%, 52.073669%, 92.419434%)" offset="0.578125"/><stop stop-opacity="1" stop-color="rgb(59.825134%, 51.885986%, 92.427063%)" offset="0.582031"/><stop stop-opacity="1" stop-color="rgb(60.231018%, 51.699829%, 92.436218%)" offset="0.585938"/><stop stop-opacity="1" stop-color="rgb(60.636902%, 51.512146%, 92.443848%)" offset="0.589844"/><stop stop-opacity="1" stop-color="rgb(61.044312%, 51.325989%, 92.451477%)" offset="0.59375"/><stop stop-opacity="1" stop-color="rgb(61.450195%, 51.139832%, 92.459106%)" offset="0.597656"/><stop stop-opacity="1" stop-color="rgb(61.857605%, 50.953674%, 92.466736%)" offset="0.601562"/><stop stop-opacity="1" stop-color="rgb(62.263489%, 50.765991%, 92.474365%)" offset="0.605469"/><stop stop-opacity="1" stop-color="rgb(62.670898%, 50.579834%, 92.483521%)" offset="0.609375"/><stop stop-opacity="1" stop-color="rgb(63.076782%, 50.392151%, 92.49115%)" offset="0.613281"/><stop stop-opacity="1" stop-color="rgb(63.482666%, 50.205994%, 92.498779%)" offset="0.617188"/><stop stop-opacity="1" stop-color="rgb(63.697815%, 50.082397%, 92.153931%)" offset="0.621094"/><stop stop-opacity="1" stop-color="rgb(63.91449%, 49.958801%, 91.809082%)" offset="0.625"/><stop stop-opacity="1" stop-color="rgb(64.126587%, 49.835205%, 91.456604%)" offset="0.628906"/><stop stop-opacity="1" stop-color="rgb(64.338684%, 49.713135%, 91.104126%)" offset="0.632812"/><stop stop-opacity="1" stop-color="rgb(64.549255%, 49.591064%, 90.751648%)" offset="0.636719"/><stop stop-opacity="1" stop-color="rgb(64.761353%, 49.468994%, 90.39917%)" offset="0.640625"/><stop stop-opacity="1" stop-color="rgb(64.97345%, 49.345398%, 90.046692%)" offset="0.644531"/><stop stop-opacity="1" stop-color="rgb(65.185547%, 49.223328%, 89.694214%)" offset="0.648437"/><stop stop-opacity="1" stop-color="rgb(65.397644%, 49.101257%, 89.341736%)" offset="0.652344"/><stop stop-opacity="1" stop-color="rgb(65.609741%, 48.979187%, 88.989258%)" offset="0.65625"/><stop stop-opacity="1" stop-color="rgb(65.821838%, 48.855591%, 88.63678%)" offset="0.660156"/><stop stop-opacity="1" stop-color="rgb(66.033936%, 48.733521%, 88.284302%)" offset="0.664062"/><stop stop-opacity="1" stop-color="rgb(66.244507%, 48.609924%, 87.931824%)" offset="0.667969"/><stop stop-opacity="1" stop-color="rgb(66.456604%, 48.487854%, 87.579346%)" offset="0.671875"/><stop stop-opacity="1" stop-color="rgb(66.668701%, 48.365784%, 87.226868%)" offset="0.675781"/><stop stop-opacity="1" stop-color="rgb(66.880798%, 48.243713%, 86.87439%)" offset="0.679688"/><stop stop-opacity="1" stop-color="rgb(67.092896%, 48.120117%, 86.521912%)" offset="0.683594"/><stop stop-opacity="1" stop-color="rgb(67.304993%, 47.998047%, 86.169434%)" offset="0.6875"/><stop stop-opacity="1" stop-color="rgb(67.515564%, 47.874451%, 85.816956%)" offset="0.691406"/><stop stop-opacity="1" stop-color="rgb(67.727661%, 47.75238%, 85.464478%)" offset="0.695312"/><stop stop-opacity="1" stop-color="rgb(67.939758%, 47.63031%, 85.112%)" offset="0.699219"/><stop stop-opacity="1" stop-color="rgb(68.151855%, 47.50824%, 84.759521%)" offset="0.703125"/><stop stop-opacity="1" stop-color="rgb(68.363953%, 47.384644%, 84.407043%)" offset="0.707031"/><stop stop-opacity="1" stop-color="rgb(68.57605%, 47.262573%, 84.054565%)" offset="0.710937"/><stop stop-opacity="1" stop-color="rgb(68.788147%, 47.140503%, 83.702087%)" offset="0.714844"/><stop stop-opacity="1" stop-color="rgb(69.000244%, 47.018433%, 83.349609%)" offset="0.71875"/><stop stop-opacity="1" stop-color="rgb(69.210815%, 46.894836%, 82.997131%)" offset="0.722656"/><stop stop-opacity="1" stop-color="rgb(69.422913%, 46.772766%, 82.644653%)" offset="0.726562"/><stop stop-opacity="1" stop-color="rgb(69.63501%, 46.64917%, 82.292175%)" offset="0.730469"/><stop stop-opacity="1" stop-color="rgb(69.847107%, 46.5271%, 81.939697%)" offset="0.734375"/><stop stop-opacity="1" stop-color="rgb(70.059204%, 46.405029%, 81.587219%)" offset="0.738281"/><stop stop-opacity="1" stop-color="rgb(70.271301%, 46.282959%, 81.236267%)" offset="0.742187"/><stop stop-opacity="1" stop-color="rgb(70.481873%, 46.159363%, 80.883789%)" offset="0.746094"/><stop stop-opacity="1" stop-color="rgb(70.69397%, 46.037292%, 80.531311%)" offset="0.75"/><stop stop-opacity="1" stop-color="rgb(70.906067%, 45.913696%, 80.178833%)" offset="0.753906"/><stop stop-opacity="1" stop-color="rgb(71.118164%, 45.791626%, 79.826355%)" offset="0.757812"/><stop stop-opacity="1" stop-color="rgb(71.330261%, 45.669556%, 79.473877%)" offset="0.761719"/><stop stop-opacity="1" stop-color="rgb(71.542358%, 45.547485%, 79.121399%)" offset="0.765625"/><stop stop-opacity="1" stop-color="rgb(71.75293%, 45.423889%, 78.768921%)" offset="0.769531"/><stop stop-opacity="1" stop-color="rgb(71.965027%, 45.301819%, 78.416443%)" offset="0.773438"/><stop stop-opacity="1" stop-color="rgb(72.177124%, 45.178223%, 78.063965%)" offset="0.777344"/><stop stop-opacity="1" stop-color="rgb(72.389221%, 45.056152%, 77.711487%)" offset="0.78125"/><stop stop-opacity="1" stop-color="rgb(72.601318%, 44.934082%, 77.359009%)" offset="0.785156"/><stop stop-opacity="1" stop-color="rgb(72.813416%, 44.812012%, 77.006531%)" offset="0.789062"/><stop stop-opacity="1" stop-color="rgb(73.025513%, 44.688416%, 76.654053%)" offset="0.792969"/><stop stop-opacity="1" stop-color="rgb(73.23761%, 44.566345%, 76.301575%)" offset="0.796875"/><stop stop-opacity="1" stop-color="rgb(73.448181%, 44.444275%, 75.949097%)" offset="0.800781"/><stop stop-opacity="1" stop-color="rgb(73.660278%, 44.322205%, 75.596619%)" offset="0.804688"/><stop stop-opacity="1" stop-color="rgb(73.872375%, 44.198608%, 75.244141%)" offset="0.808594"/><stop stop-opacity="1" stop-color="rgb(74.084473%, 44.076538%, 74.891663%)" offset="0.8125"/><stop stop-opacity="1" stop-color="rgb(74.29657%, 43.952942%, 74.539185%)" offset="0.816406"/><stop stop-opacity="1" stop-color="rgb(74.508667%, 43.830872%, 74.186707%)" offset="0.820312"/><stop stop-opacity="1" stop-color="rgb(74.719238%, 43.708801%, 73.834229%)" offset="0.824219"/><stop stop-opacity="1" stop-color="rgb(74.931335%, 43.586731%, 73.48175%)" offset="0.828125"/><stop stop-opacity="1" stop-color="rgb(75.143433%, 43.463135%, 73.129272%)" offset="0.832031"/><stop stop-opacity="1" stop-color="rgb(75.35553%, 43.341064%, 72.776794%)" offset="0.835938"/><stop stop-opacity="1" stop-color="rgb(75.567627%, 43.217468%, 72.424316%)" offset="0.839844"/><stop stop-opacity="1" stop-color="rgb(75.779724%, 43.095398%, 72.071838%)" offset="0.84375"/><stop stop-opacity="1" stop-color="rgb(75.991821%, 42.973328%, 71.71936%)" offset="0.847656"/><stop stop-opacity="1" stop-color="rgb(76.203918%, 42.851257%, 71.366882%)" offset="0.851563"/><stop stop-opacity="1" stop-color="rgb(76.41449%, 42.727661%, 71.014404%)" offset="0.855469"/><stop stop-opacity="1" stop-color="rgb(76.626587%, 42.605591%, 70.661926%)" offset="0.859375"/><stop stop-opacity="1" stop-color="rgb(76.838684%, 42.481995%, 70.309448%)" offset="0.863281"/><stop stop-opacity="1" stop-color="rgb(77.050781%, 42.359924%, 69.958496%)" offset="0.867188"/><stop stop-opacity="1" stop-color="rgb(77.262878%, 42.237854%, 69.606018%)" offset="0.871094"/><stop stop-opacity="1" stop-color="rgb(77.474976%, 42.115784%, 69.25354%)" offset="0.875"/><stop stop-opacity="1" stop-color="rgb(77.685547%, 41.992188%, 68.901062%)" offset="0.878906"/><stop stop-opacity="1" stop-color="rgb(77.897644%, 41.870117%, 68.548584%)" offset="0.882812"/><stop stop-opacity="1" stop-color="rgb(78.109741%, 41.748047%, 68.196106%)" offset="0.886719"/><stop stop-opacity="1" stop-color="rgb(78.321838%, 41.625977%, 67.843628%)" offset="0.890625"/><stop stop-opacity="1" stop-color="rgb(78.533936%, 41.50238%, 67.49115%)" offset="0.894531"/><stop stop-opacity="1" stop-color="rgb(78.746033%, 41.38031%, 67.138672%)" offset="0.898437"/><stop stop-opacity="1" stop-color="rgb(78.956604%, 41.256714%, 66.786194%)" offset="0.902344"/><stop stop-opacity="1" stop-color="rgb(79.168701%, 41.134644%, 66.433716%)" offset="0.90625"/><stop stop-opacity="1" stop-color="rgb(79.380798%, 41.012573%, 66.081238%)" offset="0.910156"/><stop stop-opacity="1" stop-color="rgb(79.592896%, 40.890503%, 65.72876%)" offset="0.914062"/><stop stop-opacity="1" stop-color="rgb(79.804993%, 40.766907%, 65.376282%)" offset="0.917969"/><stop stop-opacity="1" stop-color="rgb(80.01709%, 40.644836%, 65.023804%)" offset="0.921875"/><stop stop-opacity="1" stop-color="rgb(80.229187%, 40.52124%, 64.671326%)" offset="0.925781"/><stop stop-opacity="1" stop-color="rgb(80.441284%, 40.39917%, 64.318848%)" offset="0.929687"/><stop stop-opacity="1" stop-color="rgb(80.651855%, 40.2771%, 63.96637%)" offset="0.933594"/><stop stop-opacity="1" stop-color="rgb(80.863953%, 40.155029%, 63.613892%)" offset="0.9375"/><stop stop-opacity="1" stop-color="rgb(81.07605%, 40.031433%, 63.261414%)" offset="0.941406"/><stop stop-opacity="1" stop-color="rgb(81.288147%, 39.909363%, 62.908936%)" offset="0.945312"/><stop stop-opacity="1" stop-color="rgb(81.500244%, 39.785767%, 62.556458%)" offset="0.949219"/><stop stop-opacity="1" stop-color="rgb(81.712341%, 39.663696%, 62.203979%)" offset="0.953125"/><stop stop-opacity="1" stop-color="rgb(81.922913%, 39.541626%, 61.851501%)" offset="0.957031"/><stop stop-opacity="1" stop-color="rgb(82.13501%, 39.419556%, 61.499023%)" offset="0.960938"/><stop stop-opacity="1" stop-color="rgb(82.347107%, 39.295959%, 61.146545%)" offset="0.964844"/><stop stop-opacity="1" stop-color="rgb(82.559204%, 39.173889%, 60.794067%)" offset="0.96875"/><stop stop-opacity="1" stop-color="rgb(82.771301%, 39.051819%, 60.441589%)" offset="0.972656"/><stop stop-opacity="1" stop-color="rgb(82.983398%, 38.929749%, 60.089111%)" offset="0.976562"/><stop stop-opacity="1" stop-color="rgb(83.195496%, 38.806152%, 59.736633%)" offset="0.980469"/><stop stop-opacity="1" stop-color="rgb(83.407593%, 38.684082%, 59.384155%)" offset="0.984375"/><stop stop-opacity="1" stop-color="rgb(83.618164%, 38.560486%, 59.031677%)" offset="0.988281"/><stop stop-opacity="1" stop-color="rgb(83.830261%, 38.438416%, 58.680725%)" offset="0.992188"/><stop stop-opacity="1" stop-color="rgb(84.042358%, 38.316345%, 58.328247%)" offset="0.996094"/><stop stop-opacity="1" stop-color="rgb(84.254456%, 38.194275%, 57.975769%)" offset="1"/></linearGradient><clipPath id="8314c992c1"><rect x="0" width="688" y="0" height="613"/></clipPath></defs><g clip-path="url(#9af77c2068)"><path fill="#ffffff" d="M 0.886719 0 L 1199.113281 0 L 1199.113281 674 L 0.886719 674 Z M 0.886719 0 " fill-opacity="1" fill-rule="nonzero"/><path fill="url(#b2bb5a942d)" d="M 0.886719 0 L 0.886719 674 L 1199.113281 674 L 1199.113281 0 Z M 0.886719 0 " fill-rule="nonzero"/></g><g clip-path="url(#b6728ed0b2)"><g mask="url(#f355bd89b1)"><g transform="matrix(1, 0, 0, 1, 512, 61)"><g clip-path="url(#8314c992c1)"><g clip-path="url(#b2972d1c4d)"><g clip-path="url(#98d032f1f3)"><g clip-path="url(#34caad7422)"><g clip-path="url(#bf4198883d)"><g clip-path="url(#f52b95a0e2)"><path fill="url(#92721047f8)" d="M 11.09375 -4.722656 L -49.128906 607.722656 L 680.574219 679.476562 L 740.800781 67.03125 Z M 11.09375 -4.722656 " fill-rule="nonzero"/></g></g></g></g></g></g></g></g></g><g fill="#000000" fill-opacity="1"><g transform="translate(382.534235, 356.455773)"><g/></g></g><g fill="#000000" fill-opacity="1"><g transform="translate(439.296528, 356.455773)"><g/></g></g><g fill="#000000" fill-opacity="1"><g transform="translate(452.63566, 356.455773)"><g><path d="M 22.984375 0.796875 C 18.972656 0.796875 15.414062 -0.0820312 12.3125 -1.84375 C 9.207031 -3.601562 6.785156 -6.035156 5.046875 -9.140625 C 3.304688 -12.242188 2.4375 -15.820312 2.4375 -19.875 C 2.4375 -23.914062 3.304688 -27.488281 5.046875 -30.59375 C 6.785156 -33.695312 9.195312 -36.128906 12.28125 -37.890625 C 15.375 -39.648438 18.925781 -40.53125 22.9375 -40.53125 C 26.300781 -40.53125 29.382812 -39.882812 32.1875 -38.59375 C 34.988281 -37.3125 37.34375 -35.492188 39.25 -33.140625 C 41.164062 -30.796875 42.5 -28.035156 43.25 -24.859375 L 33.953125 -24.859375 C 33.191406 -27.054688 31.84375 -28.785156 29.90625 -30.046875 C 27.976562 -31.316406 25.75 -31.953125 23.21875 -31.953125 C 20.988281 -31.953125 18.992188 -31.441406 17.234375 -30.421875 C 15.472656 -29.398438 14.097656 -27.976562 13.109375 -26.15625 C 12.128906 -24.34375 11.640625 -22.25 11.640625 -19.875 C 11.640625 -17.488281 12.128906 -15.382812 13.109375 -13.5625 C 14.097656 -11.75 15.460938 -10.332031 17.203125 -9.3125 C 18.941406 -8.289062 20.925781 -7.78125 23.15625 -7.78125 C 25.769531 -7.78125 28.0625 -8.453125 30.03125 -9.796875 C 32 -11.140625 33.398438 -12.945312 34.234375 -15.21875 L 43.546875 -15.21875 C 42.898438 -12 41.609375 -9.1875 39.671875 -6.78125 C 37.742188 -4.375 35.351562 -2.507812 32.5 -1.1875 C 29.644531 0.132812 26.472656 0.796875 22.984375 0.796875 Z M 22.984375 0.796875 "/></g></g></g><g fill="#000000" fill-opacity="1"><g transform="translate(498.442803, 356.455773)"><g><path d="M 14.25 0.5625 C 10.726562 0.5625 7.945312 -0.257812 5.90625 -1.90625 C 3.863281 -3.550781 2.84375 -5.8125 2.84375 -8.6875 C 2.84375 -11.445312 3.757812 -13.648438 5.59375 -15.296875 C 7.425781 -16.941406 9.894531 -17.765625 13 -17.765625 L 23.78125 -17.765625 L 23.78125 -19.125 C 23.78125 -20.601562 23.25 -21.785156 22.1875 -22.671875 C 21.132812 -23.566406 19.753906 -24.015625 18.046875 -24.015625 C 16.648438 -24.015625 15.457031 -23.691406 14.46875 -23.046875 C 13.488281 -22.398438 12.867188 -21.550781 12.609375 -20.5 L 4.3125 -20.5 C 4.84375 -23.75 6.304688 -26.242188 8.703125 -27.984375 C 11.109375 -29.722656 14.207031 -30.59375 18 -30.59375 C 22.457031 -30.59375 25.945312 -29.46875 28.46875 -27.21875 C 30.988281 -24.96875 32.25 -21.875 32.25 -17.9375 L 32.25 0 L 25.828125 0 L 24.859375 -3.46875 C 22.253906 -0.78125 18.71875 0.5625 14.25 0.5625 Z M 11.359375 -9.03125 C 11.359375 -8.007812 11.800781 -7.1875 12.6875 -6.5625 C 13.570312 -5.9375 14.753906 -5.625 16.234375 -5.625 C 18.390625 -5.625 20.175781 -6.242188 21.59375 -7.484375 C 23.019531 -8.734375 23.769531 -10.363281 23.84375 -12.375 L 15.671875 -12.375 C 14.378906 -12.375 13.335938 -12.070312 12.546875 -11.46875 C 11.753906 -10.863281 11.359375 -10.050781 11.359375 -9.03125 Z M 11.359375 -9.03125 "/></g></g></g><g fill="#000000" fill-opacity="1"><g transform="translate(534.430082, 356.455773)"><g><path d="M 4.3125 0 L 4.3125 -29.796875 L 10.734375 -29.796875 L 11.640625 -26.453125 C 12.847656 -27.847656 14.3125 -28.882812 16.03125 -29.5625 C 17.757812 -30.25 19.609375 -30.59375 21.578125 -30.59375 C 25.472656 -30.59375 28.523438 -29.378906 30.734375 -26.953125 C 32.953125 -24.535156 34.0625 -21.265625 34.0625 -17.140625 L 34.0625 0 L 25.4375 0 L 25.4375 -16.234375 C 25.4375 -18.429688 24.914062 -20.144531 23.875 -21.375 C 22.832031 -22.601562 21.382812 -23.21875 19.53125 -23.21875 C 17.5625 -23.21875 15.96875 -22.535156 14.75 -21.171875 C 13.539062 -19.804688 12.9375 -17.953125 12.9375 -15.609375 L 12.9375 0 Z M 4.3125 0 "/></g></g></g><g fill="#000000" fill-opacity="1"><g transform="translate(572.233747, 356.455773)"><g><path d="M 18.5 0.796875 C 15.320312 0.796875 12.503906 0.125 10.046875 -1.21875 C 7.585938 -2.5625 5.664062 -4.414062 4.28125 -6.78125 C 2.90625 -9.144531 2.21875 -11.859375 2.21875 -14.921875 C 2.21875 -17.992188 2.90625 -20.703125 4.28125 -23.046875 C 5.664062 -25.390625 7.585938 -27.234375 10.046875 -28.578125 C 12.503906 -29.921875 15.320312 -30.59375 18.5 -30.59375 C 21.269531 -30.59375 23.78125 -30.09375 26.03125 -29.09375 C 28.28125 -28.09375 30.140625 -26.671875 31.609375 -24.828125 C 33.085938 -22.992188 34.054688 -20.847656 34.515625 -18.390625 L 26.21875 -18.390625 C 25.5 -19.898438 24.476562 -21.082031 23.15625 -21.9375 C 21.832031 -22.789062 20.320312 -23.21875 18.625 -23.21875 C 16.3125 -23.21875 14.414062 -22.453125 12.9375 -20.921875 C 11.46875 -19.390625 10.734375 -17.390625 10.734375 -14.921875 C 10.734375 -12.503906 11.46875 -10.519531 12.9375 -8.96875 C 14.414062 -7.414062 16.3125 -6.640625 18.625 -6.640625 C 20.4375 -6.640625 22.03125 -7.117188 23.40625 -8.078125 C 24.789062 -9.046875 25.785156 -10.347656 26.390625 -11.984375 L 34.796875 -11.984375 C 34.265625 -9.367188 33.25 -7.101562 31.75 -5.1875 C 30.257812 -3.28125 28.378906 -1.804688 26.109375 -0.765625 C 23.835938 0.273438 21.300781 0.796875 18.5 0.796875 Z M 18.5 0.796875 "/></g></g></g><g fill="#000000" fill-opacity="1"><g transform="translate(609.129219, 356.455773)"><g><path d="M 18.390625 0.796875 C 15.210938 0.796875 12.398438 0.132812 9.953125 -1.1875 C 7.515625 -2.507812 5.613281 -4.351562 4.25 -6.71875 C 2.894531 -9.09375 2.21875 -11.828125 2.21875 -14.921875 C 2.21875 -18.023438 2.90625 -20.75 4.28125 -23.09375 C 5.664062 -25.445312 7.578125 -27.285156 10.015625 -28.609375 C 12.460938 -29.929688 15.289062 -30.59375 18.5 -30.59375 C 21.90625 -30.59375 24.847656 -29.835938 27.328125 -28.328125 C 29.804688 -26.816406 31.695312 -24.695312 33 -21.96875 C 34.3125 -19.238281 34.875 -16.0625 34.6875 -12.4375 L 10.78125 -12.4375 C 11.195312 -10.382812 12.101562 -8.816406 13.5 -7.734375 C 14.90625 -6.660156 16.59375 -6.125 18.5625 -6.125 C 20 -6.125 21.3125 -6.398438 22.5 -6.953125 C 23.695312 -7.503906 24.65625 -8.269531 25.375 -9.25 L 34.109375 -9.25 C 32.828125 -6.113281 30.800781 -3.65625 28.03125 -1.875 C 25.269531 -0.09375 22.054688 0.796875 18.390625 0.796875 Z M 10.84375 -17.875 L 26.34375 -17.875 C 25.84375 -19.695312 24.921875 -21.128906 23.578125 -22.171875 C 22.242188 -23.210938 20.570312 -23.734375 18.5625 -23.734375 C 16.664062 -23.734375 15.023438 -23.210938 13.640625 -22.171875 C 12.265625 -21.128906 11.332031 -19.695312 10.84375 -17.875 Z M 10.84375 -17.875 "/></g></g></g><g fill="#000000" fill-opacity="1"><g transform="translate(645.96791, 356.455773)"><g><path d="M 4.3125 0 L 4.3125 -29.796875 L 10.734375 -29.796875 L 11.859375 -25.828125 C 12.847656 -27.222656 14.0625 -28.234375 15.5 -28.859375 C 16.9375 -29.484375 18.753906 -29.796875 20.953125 -29.796875 L 24.1875 -29.796875 L 24.1875 -21.96875 L 20.890625 -21.96875 C 18.429688 -21.96875 16.488281 -21.304688 15.0625 -19.984375 C 13.644531 -18.660156 12.9375 -16.390625 12.9375 -13.171875 L 12.9375 0 Z M 4.3125 0 "/></g></g></g><g fill="#000000" fill-opacity="1"><g transform="translate(672.078544, 356.455773)"><g/></g></g><g fill="#000000" fill-opacity="1"><g transform="translate(685.417676, 356.455773)"><g><path d="M 14.3125 0 L 14.3125 -31.28125 L 1.703125 -31.28125 L 1.703125 -39.734375 L 35.9375 -39.734375 L 35.9375 -31.28125 L 23.328125 -31.28125 L 23.328125 0 Z M 14.3125 0 "/></g></g></g><g fill="#000000" fill-opacity="1"><g transform="translate(723.051058, 356.455773)"><g><path d="M 18.390625 0.796875 C 15.210938 0.796875 12.398438 0.132812 9.953125 -1.1875 C 7.515625 -2.507812 5.613281 -4.351562 4.25 -6.71875 C 2.894531 -9.09375 2.21875 -11.828125 2.21875 -14.921875 C 2.21875 -18.023438 2.90625 -20.75 4.28125 -23.09375 C 5.664062 -25.445312 7.578125 -27.285156 10.015625 -28.609375 C 12.460938 -29.929688 15.289062 -30.59375 18.5 -30.59375 C 21.90625 -30.59375 24.847656 -29.835938 27.328125 -28.328125 C 29.804688 -26.816406 31.695312 -24.695312 33 -21.96875 C 34.3125 -19.238281 34.875 -16.0625 34.6875 -12.4375 L 10.78125 -12.4375 C 11.195312 -10.382812 12.101562 -8.816406 13.5 -7.734375 C 14.90625 -6.660156 16.59375 -6.125 18.5625 -6.125 C 20 -6.125 21.3125 -6.398438 22.5 -6.953125 C 23.695312 -7.503906 24.65625 -8.269531 25.375 -9.25 L 34.109375 -9.25 C 32.828125 -6.113281 30.800781 -3.65625 28.03125 -1.875 C 25.269531 -0.09375 22.054688 0.796875 18.390625 0.796875 Z M 10.84375 -17.875 L 26.34375 -17.875 C 25.84375 -19.695312 24.921875 -21.128906 23.578125 -22.171875 C 22.242188 -23.210938 20.570312 -23.734375 18.5625 -23.734375 C 16.664062 -23.734375 15.023438 -23.210938 13.640625 -22.171875 C 12.265625 -21.128906 11.332031 -19.695312 10.84375 -17.875 Z M 10.84375 -17.875 "/></g></g></g><g fill="#000000" fill-opacity="1"><g transform="translate(759.889749, 356.455773)"><g><path d="M 15.78125 0.796875 C 13.050781 0.796875 10.675781 0.363281 8.65625 -0.5 C 6.632812 -1.375 5.0625 -2.585938 3.9375 -4.140625 C 2.820312 -5.691406 2.265625 -7.507812 2.265625 -9.59375 L 10.734375 -9.59375 C 10.765625 -8.382812 11.234375 -7.421875 12.140625 -6.703125 C 13.054688 -5.984375 14.304688 -5.625 15.890625 -5.625 C 17.253906 -5.625 18.3125 -5.878906 19.0625 -6.390625 C 19.820312 -6.898438 20.203125 -7.585938 20.203125 -8.453125 C 20.203125 -9.398438 19.691406 -10.1875 18.671875 -10.8125 C 17.648438 -11.4375 15.988281 -11.9375 13.6875 -12.3125 C 9.894531 -13 7.109375 -14.097656 5.328125 -15.609375 C 3.554688 -17.117188 2.671875 -19.109375 2.671875 -21.578125 C 2.671875 -24.484375 3.757812 -26.710938 5.9375 -28.265625 C 8.113281 -29.816406 11.207031 -30.59375 15.21875 -30.59375 C 19.1875 -30.59375 22.296875 -29.738281 24.546875 -28.03125 C 26.796875 -26.332031 28.019531 -23.914062 28.21875 -20.78125 L 19.984375 -20.78125 C 19.910156 -21.914062 19.445312 -22.796875 18.59375 -23.421875 C 17.738281 -24.046875 16.59375 -24.359375 15.15625 -24.359375 C 13.863281 -24.359375 12.847656 -24.109375 12.109375 -23.609375 C 11.378906 -23.117188 11.015625 -22.441406 11.015625 -21.578125 C 11.015625 -20.660156 11.492188 -19.945312 12.453125 -19.4375 C 13.421875 -18.925781 15.171875 -18.40625 17.703125 -17.875 C 25.046875 -16.40625 28.71875 -13.25 28.71875 -8.40625 C 28.71875 -5.5625 27.570312 -3.316406 25.28125 -1.671875 C 23 -0.0234375 19.832031 0.796875 15.78125 0.796875 Z M 15.78125 0.796875 "/></g></g></g><g fill="#000000" fill-opacity="1"><g transform="translate(790.938722, 356.455773)"><g><path d="M 18.671875 0 C 14.890625 0 11.984375 -0.972656 9.953125 -2.921875 C 7.929688 -4.867188 6.921875 -7.660156 6.921875 -11.296875 L 6.921875 -22.765625 L 1.140625 -22.765625 L 1.140625 -29.796875 L 3.796875 -29.796875 C 5.429688 -29.796875 6.539062 -30.0625 7.125 -30.59375 C 7.707031 -31.125 8.113281 -32.144531 8.34375 -33.65625 L 8.859375 -37.515625 L 15.546875 -37.515625 L 15.546875 -29.796875 L 23.734375 -29.796875 L 23.734375 -22.765625 L 15.546875 -22.765625 L 15.546875 -12.609375 C 15.546875 -9.203125 17.210938 -7.5 20.546875 -7.5 L 24.125 -7.5 L 24.125 0 Z M 18.671875 0 "/></g></g></g></svg>